<svg xmlns="http://www.w3.org/2000/svg" width="1024" height="1024" viewBox="0 0 1024 1024"><path d="M 512.00 199.68 L 512.00 199.72 L 512.01 199.83 L 512.04 200.02 L 512.08 200.28 L 512.14 200.62 L 512.23 201.04 L 512.35 201.53 L 512.49 202.10 L 512.66 202.74 L 512.87 203.45 L 513.11 204.25 L 513.40 205.11 L 513.72 206.05 L 514.08 207.06 L 514.48 208.15 L 514.93 209.31 L 515.43 210.55 L 515.97 211.86 L 516.56 213.24 L 517.20 214.69 L 517.89 216.22 L 518.63 217.82 L 519.43 219.49 L 520.27 221.23 L 521.18 223.04 L 522.13 224.92 L 523.15 226.87 L 524.22 228.89 L 525.35 230.99 L 526.53 233.14 L 527.77 235.37 L 529.07 237.67 L 530.43 240.03 L 531.85 242.46 L 533.32 244.95 L 534.86 247.51 L 536.45 250.14 L 538.10 252.83 L 539.81 255.58 L 541.58 258.40 L 543.40 261.28 L 545.29 264.22 L 547.23 267.22 L 549.22 270.28 L 551.28 273.40 L 553.38 276.58 L 555.55 279.82 L 557.76 283.12 L 560.03 286.48 L 562.35 289.89 L 564.73 293.35 L 567.15 296.87 L 569.62 300.45 L 572.14 304.08 L 574.71 307.76 L 577.32 311.49 L 579.98 315.27 L 582.68 319.10 L 585.43 322.98 L 588.21 326.91 L 591.03 330.89 L 593.89 334.91 L 596.79 338.98 L 599.72 343.09 L 602.68 347.24 L 605.67 351.44 L 608.69 355.68 L 611.74 359.96 L 614.82 364.28 L 617.92 368.64 L 621.04 373.04 L 624.18 377.47 L 627.34 381.94 L 630.51 386.44 L 633.70 390.98 L 636.90 395.55 L 640.11 400.16 L 643.33 404.79 L 646.56 409.45 L 649.78 414.14 L 653.01 418.86 L 656.24 423.61 L 659.46 428.38 L 662.68 433.18 L 665.89 438.00 L 669.09 442.84 L 672.28 447.70 L 675.45 452.58 L 678.61 457.49 L 681.74 462.41 L 684.86 467.34 L 687.95 472.29 L 691.02 477.26 L 694.06 482.24 L 697.06 487.24 L 700.04 492.24 L 702.98 497.25 L 705.88 502.28 L 708.74 507.31 L 711.56 512.35 L 714.33 517.39 L 717.06 522.44 L 719.74 527.49 L 722.37 532.54 L 724.95 537.60 L 727.47 542.66 L 729.93 547.71 L 732.33 552.76 L 734.68 557.81 L 736.95 562.85 L 739.17 567.89 L 741.31 572.92 L 743.39 577.95 L 745.39 582.96 L 747.32 587.96 L 749.18 592.96 L 750.95 597.94 L 752.65 602.91 L 754.27 607.86 L 755.81 612.79 L 757.26 617.71 L 758.63 622.62 L 759.91 627.50 L 761.10 632.36 L 762.20 637.20 L 763.21 642.02 L 764.12 646.82 L 764.95 651.59 L 765.67 656.34 L 766.30 661.06 L 766.84 665.75 L 767.27 670.41 L 767.61 675.04 L 767.84 679.65 L 767.97 684.22 L 768.00 688.76 L 767.93 693.26 L 767.75 697.73 L 767.47 702.16 L 767.08 706.56 L 766.58 710.92 L 765.98 715.24 L 765.28 719.52 L 764.46 723.76 L 763.54 727.96 L 762.52 732.11 L 761.38 736.22 L 760.14 740.29 L 758.78 744.31 L 757.33 748.29 L 755.76 752.22 L 754.08 756.10 L 752.30 759.93 L 750.42 763.71 L 748.42 767.44 L 746.32 771.12 L 744.12 774.75 L 741.81 778.33 L 739.39 781.85 L 736.87 785.31 L 734.25 788.72 L 731.53 792.08 L 728.71 795.38 L 725.78 798.62 L 722.76 801.80 L 719.64 804.92 L 716.43 807.98 L 713.11 810.98 L 709.71 813.92 L 706.21 816.80 L 702.62 819.62 L 698.94 822.37 L 695.17 825.06 L 691.32 827.69 L 687.38 830.25 L 683.35 832.74 L 679.25 835.17 L 675.06 837.53 L 670.80 839.83 L 666.46 842.06 L 662.05 844.21 L 657.56 846.31 L 653.01 848.33 L 648.38 850.28 L 643.70 852.16 L 638.94 853.97 L 634.13 855.71 L 629.25 857.38 L 624.32 858.98 L 619.34 860.51 L 614.30 861.96 L 609.21 863.34 L 604.08 864.65 L 598.90 865.89 L 593.67 867.05 L 588.41 868.14 L 583.11 869.15 L 577.78 870.09 L 572.41 870.95 L 567.01 871.75 L 561.59 872.46 L 556.14 873.10 L 550.67 873.67 L 545.18 874.16 L 539.68 874.58 L 534.16 874.92 L 528.63 875.18 L 523.09 875.37 L 517.55 875.48 L 512.00 875.52 L 506.45 875.48 L 500.91 875.37 L 495.37 875.18 L 489.84 874.92 L 484.32 874.58 L 478.82 874.16 L 473.33 873.67 L 467.86 873.10 L 462.41 872.46 L 456.99 871.75 L 451.59 870.95 L 446.22 870.09 L 440.89 869.15 L 435.59 868.14 L 430.33 867.05 L 425.10 865.89 L 419.92 864.65 L 414.79 863.34 L 409.70 861.96 L 404.66 860.51 L 399.68 858.98 L 394.75 857.38 L 389.87 855.71 L 385.06 853.97 L 380.30 852.16 L 375.62 850.28 L 370.99 848.33 L 366.44 846.31 L 361.95 844.21 L 357.54 842.06 L 353.20 839.83 L 348.94 837.53 L 344.75 835.17 L 340.65 832.74 L 336.62 830.25 L 332.68 827.69 L 328.83 825.06 L 325.06 822.37 L 321.38 819.62 L 317.79 816.80 L 314.29 813.92 L 310.89 810.98 L 307.57 807.98 L 304.36 804.92 L 301.24 801.80 L 298.22 798.62 L 295.29 795.38 L 292.47 792.08 L 289.75 788.72 L 287.13 785.31 L 284.61 781.85 L 282.19 778.33 L 279.88 774.75 L 277.68 771.12 L 275.58 767.44 L 273.58 763.71 L 271.70 759.93 L 269.92 756.10 L 268.24 752.22 L 266.67 748.29 L 265.22 744.31 L 263.86 740.29 L 262.62 736.22 L 261.48 732.11 L 260.46 727.96 L 259.54 723.76 L 258.72 719.52 L 258.02 715.24 L 257.42 710.92 L 256.92 706.56 L 256.53 702.16 L 256.25 697.73 L 256.07 693.26 L 256.00 688.76 L 256.03 684.22 L 256.16 679.65 L 256.39 675.04 L 256.73 670.41 L 257.16 665.75 L 257.70 661.06 L 258.33 656.34 L 259.05 651.59 L 259.88 646.82 L 260.79 642.02 L 261.80 637.20 L 262.90 632.36 L 264.09 627.50 L 265.37 622.62 L 266.74 617.71 L 268.19 612.79 L 269.73 607.86 L 271.35 602.91 L 273.05 597.94 L 274.82 592.96 L 276.68 587.96 L 278.61 582.96 L 280.61 577.95 L 282.69 572.92 L 284.83 567.89 L 287.05 562.85 L 289.32 557.81 L 291.67 552.76 L 294.07 547.71 L 296.53 542.66 L 299.05 537.60 L 301.63 532.54 L 304.26 527.49 L 306.94 522.44 L 309.67 517.39 L 312.44 512.35 L 315.26 507.31 L 318.12 502.28 L 321.02 497.25 L 323.96 492.24 L 326.94 487.24 L 329.94 482.24 L 332.98 477.26 L 336.05 472.29 L 339.14 467.34 L 342.26 462.41 L 345.39 457.49 L 348.55 452.58 L 351.72 447.70 L 354.91 442.84 L 358.11 438.00 L 361.32 433.18 L 364.54 428.38 L 367.76 423.61 L 370.99 418.86 L 374.22 414.14 L 377.44 409.45 L 380.67 404.79 L 383.89 400.16 L 387.10 395.55 L 390.30 390.98 L 393.49 386.44 L 396.66 381.94 L 399.82 377.47 L 402.96 373.04 L 406.08 368.64 L 409.18 364.28 L 412.26 359.96 L 415.31 355.68 L 418.33 351.44 L 421.32 347.24 L 424.28 343.09 L 427.21 338.98 L 430.11 334.91 L 432.97 330.89 L 435.79 326.91 L 438.57 322.98 L 441.32 319.10 L 444.02 315.27 L 446.68 311.49 L 449.29 307.76 L 451.86 304.08 L 454.38 300.45 L 456.85 296.87 L 459.27 293.35 L 461.65 289.89 L 463.97 286.48 L 466.24 283.12 L 468.45 279.82 L 470.62 276.58 L 472.72 273.40 L 474.78 270.28 L 476.77 267.22 L 478.71 264.22 L 480.60 261.28 L 482.42 258.40 L 484.19 255.58 L 485.90 252.83 L 487.55 250.14 L 489.14 247.51 L 490.68 244.95 L 492.15 242.46 L 493.57 240.03 L 494.93 237.67 L 496.23 235.37 L 497.47 233.14 L 498.65 230.99 L 499.78 228.89 L 500.85 226.87 L 501.87 224.92 L 502.82 223.04 L 503.73 221.23 L 504.57 219.49 L 505.37 217.82 L 506.11 216.22 L 506.80 214.69 L 507.44 213.24 L 508.03 211.86 L 508.57 210.55 L 509.07 209.31 L 509.52 208.15 L 509.92 207.06 L 510.28 206.05 L 510.60 205.11 L 510.89 204.25 L 511.13 203.45 L 511.34 202.74 L 511.51 202.10 L 511.65 201.53 L 511.77 201.04 L 511.86 200.62 L 511.92 200.28 L 511.96 200.02 L 511.99 199.83 L 512.00 199.72 Z" fill="#FFFFFF" fill-opacity="0.55"/></svg>